<?xml version="1.0" encoding="utf-8"?>
<!-- Generator: Adobe Illustrator 19.0.1, SVG Export Plug-In . SVG Version: 6.00 Build 0)  -->
<svg version="1.1" id="Layer_1" xmlns="http://www.w3.org/2000/svg" xmlns:xlink="http://www.w3.org/1999/xlink" x="0px" y="0px"
	 viewBox="0 0 80 80" style="enable-background:new 0 0 80 80;" xml:space="preserve">
<style type="text/css">
	.st0{fill:#15ADE4;}
</style>
<g>
	<g>
		<path class="st0" d="M76.9,19.8H52.1V1.7c0-0.9-0.7-1.6-1.6-1.6H6C5.1,0,4.4,0.8,4.4,1.7v76.7C4.4,79.3,5.1,80,6,80h70.9
			c0.9,0,1.6-0.7,1.6-1.6V21.5C78.5,20.6,77.8,19.8,76.9,19.8L76.9,19.8z M48.9,21.5v55.3H7.6V3.3h41.3V21.5z M75.3,76.8H52.1V23.1
			h23.1V76.8z M75.3,76.8"/>
		<path class="st0" d="M58.4,31.3H69c0.9,0,1.6-0.7,1.6-1.6c0-0.9-0.7-1.6-1.6-1.6H58.4c-0.9,0-1.6,0.7-1.6,1.6
			C56.8,30.5,57.5,31.3,58.4,31.3L58.4,31.3z M58.4,31.3"/>
		<path class="st0" d="M58.4,39.4H69c0.9,0,1.6-0.7,1.6-1.6c0-0.9-0.7-1.6-1.6-1.6H58.4c-0.9,0-1.6,0.7-1.6,1.6
			C56.8,38.7,57.5,39.4,58.4,39.4L58.4,39.4z M58.4,39.4"/>
		<path class="st0" d="M58.4,47.5H69c0.9,0,1.6-0.7,1.6-1.6c0-0.9-0.7-1.6-1.6-1.6H58.4c-0.9,0-1.6,0.7-1.6,1.6
			C56.8,46.8,57.5,47.5,58.4,47.5L58.4,47.5z M58.4,47.5"/>
		<path class="st0" d="M58.4,55.6H69c0.9,0,1.6-0.7,1.6-1.6c0-0.9-0.7-1.6-1.6-1.6H58.4c-0.9,0-1.6,0.7-1.6,1.6
			C56.8,54.9,57.5,55.6,58.4,55.6L58.4,55.6z M58.4,55.6"/>
		<path class="st0" d="M58.4,63.7H69c0.9,0,1.6-0.7,1.6-1.6c0-0.9-0.7-1.6-1.6-1.6H58.4c-0.9,0-1.6,0.7-1.6,1.6
			C56.8,63,57.5,63.7,58.4,63.7L58.4,63.7z M58.4,63.7"/>
		<path class="st0" d="M58.4,71.8H69c0.9,0,1.6-0.7,1.6-1.6c0-0.9-0.7-1.6-1.6-1.6H58.4c-0.9,0-1.6,0.7-1.6,1.6
			C56.8,71.1,57.5,71.8,58.4,71.8L58.4,71.8z M58.4,71.8"/>
		<path class="st0" d="M15.1,15.9c0.9,0,1.6-0.7,1.6-1.6v-3.6c0-0.9-0.7-1.6-1.6-1.6c-0.9,0-1.6,0.7-1.6,1.6v3.6
			C13.5,15.2,14.2,15.9,15.1,15.9L15.1,15.9z M15.1,15.9"/>
		<path class="st0" d="M23.9,15.9c0.9,0,1.6-0.7,1.6-1.6v-3.6c0-0.9-0.7-1.6-1.6-1.6c-0.9,0-1.6,0.7-1.6,1.6v3.6
			C22.2,15.2,23,15.9,23.9,15.9L23.9,15.9z M23.9,15.9"/>
		<path class="st0" d="M32.6,15.9c0.9,0,1.6-0.7,1.6-1.6v-3.6c0-0.9-0.7-1.6-1.6-1.6c-0.9,0-1.6,0.7-1.6,1.6v3.6
			C31,15.2,31.7,15.9,32.6,15.9L32.6,15.9z M32.6,15.9"/>
		<path class="st0" d="M41.4,15.9c0.9,0,1.6-0.7,1.6-1.6v-3.6c0-0.9-0.7-1.6-1.6-1.6c-0.9,0-1.6,0.7-1.6,1.6v3.6
			C39.8,15.2,40.5,15.9,41.4,15.9L41.4,15.9z M41.4,15.9"/>
		<path class="st0" d="M15.1,26.9c0.9,0,1.6-0.7,1.6-1.6v-3.6c0-0.9-0.7-1.6-1.6-1.6c-0.9,0-1.6,0.7-1.6,1.6v3.6
			C13.5,26.2,14.2,26.9,15.1,26.9L15.1,26.9z M15.1,26.9"/>
		<path class="st0" d="M23.9,26.9c0.9,0,1.6-0.7,1.6-1.6v-3.6c0-0.9-0.7-1.6-1.6-1.6c-0.9,0-1.6,0.7-1.6,1.6v3.6
			C22.2,26.2,23,26.9,23.9,26.9L23.9,26.9z M23.9,26.9"/>
		<path class="st0" d="M32.6,26.9c0.9,0,1.6-0.7,1.6-1.6v-3.6c0-0.9-0.7-1.6-1.6-1.6c-0.9,0-1.6,0.7-1.6,1.6v3.6
			C31,26.2,31.7,26.9,32.6,26.9L32.6,26.9z M32.6,26.9"/>
		<path class="st0" d="M41.4,26.9c0.9,0,1.6-0.7,1.6-1.6v-3.6c0-0.9-0.7-1.6-1.6-1.6c-0.9,0-1.6,0.7-1.6,1.6v3.6
			C39.8,26.2,40.5,26.9,41.4,26.9L41.4,26.9z M41.4,26.9"/>
		<path class="st0" d="M15.1,38c0.9,0,1.6-0.7,1.6-1.6v-3.6c0-0.9-0.7-1.6-1.6-1.6c-0.9,0-1.6,0.7-1.6,1.6v3.6
			C13.5,37.3,14.2,38,15.1,38L15.1,38z M15.1,38"/>
		<path class="st0" d="M23.9,38c0.9,0,1.6-0.7,1.6-1.6v-3.6c0-0.9-0.7-1.6-1.6-1.6c-0.9,0-1.6,0.7-1.6,1.6v3.6
			C22.2,37.3,23,38,23.9,38L23.9,38z M23.9,38"/>
		<path class="st0" d="M32.6,38c0.9,0,1.6-0.7,1.6-1.6v-3.6c0-0.9-0.7-1.6-1.6-1.6c-0.9,0-1.6,0.7-1.6,1.6v3.6
			C31,37.3,31.7,38,32.6,38L32.6,38z M32.6,38"/>
		<path class="st0" d="M41.4,38c0.9,0,1.6-0.7,1.6-1.6v-3.6c0-0.9-0.7-1.6-1.6-1.6c-0.9,0-1.6,0.7-1.6,1.6v3.6
			C39.8,37.3,40.5,38,41.4,38L41.4,38z M41.4,38"/>
		<path class="st0" d="M15.1,49.1c0.9,0,1.6-0.7,1.6-1.6v-3.6c0-0.9-0.7-1.6-1.6-1.6c-0.9,0-1.6,0.7-1.6,1.6v3.6
			C13.5,48.3,14.2,49.1,15.1,49.1L15.1,49.1z M15.1,49.1"/>
		<path class="st0" d="M23.9,49.1c0.9,0,1.6-0.7,1.6-1.6v-3.6c0-0.9-0.7-1.6-1.6-1.6c-0.9,0-1.6,0.7-1.6,1.6v3.6
			C22.2,48.3,23,49.1,23.9,49.1L23.9,49.1z M23.9,49.1"/>
		<path class="st0" d="M32.6,49.1c0.9,0,1.6-0.7,1.6-1.6v-3.6c0-0.9-0.7-1.6-1.6-1.6c-0.9,0-1.6,0.7-1.6,1.6v3.6
			C31,48.3,31.7,49.1,32.6,49.1L32.6,49.1z M32.6,49.1"/>
		<path class="st0" d="M41.4,49.1c0.9,0,1.6-0.7,1.6-1.6v-3.6c0-0.9-0.7-1.6-1.6-1.6c-0.9,0-1.6,0.7-1.6,1.6v3.6
			C39.8,48.3,40.5,49.1,41.4,49.1L41.4,49.1z M41.4,49.1"/>
		<path class="st0" d="M15.1,60.1c0.9,0,1.6-0.7,1.6-1.6v-3.6c0-0.9-0.7-1.6-1.6-1.6c-0.9,0-1.6,0.7-1.6,1.6v3.6
			C13.5,59.4,14.2,60.1,15.1,60.1L15.1,60.1z M15.1,60.1"/>
		<path class="st0" d="M23.9,60.1c0.9,0,1.6-0.7,1.6-1.6v-3.6c0-0.9-0.7-1.6-1.6-1.6c-0.9,0-1.6,0.7-1.6,1.6v3.6
			C22.2,59.4,23,60.1,23.9,60.1L23.9,60.1z M23.9,60.1"/>
		<path class="st0" d="M32.6,60.1c0.9,0,1.6-0.7,1.6-1.6v-3.6c0-0.9-0.7-1.6-1.6-1.6c-0.9,0-1.6,0.7-1.6,1.6v3.6
			C31,59.4,31.7,60.1,32.6,60.1L32.6,60.1z M32.6,60.1"/>
		<path class="st0" d="M41.4,60.1c0.9,0,1.6-0.7,1.6-1.6v-3.6c0-0.9-0.7-1.6-1.6-1.6c-0.9,0-1.6,0.7-1.6,1.6v3.6
			C39.8,59.4,40.5,60.1,41.4,60.1L41.4,60.1z M41.4,60.1"/>
		<path class="st0" d="M15.1,71.2c0.9,0,1.6-0.7,1.6-1.6V66c0-0.9-0.7-1.6-1.6-1.6c-0.9,0-1.6,0.7-1.6,1.6v3.6
			C13.5,70.5,14.2,71.2,15.1,71.2L15.1,71.2z M15.1,71.2"/>
		<path class="st0" d="M23.9,71.2c0.9,0,1.6-0.7,1.6-1.6V66c0-0.9-0.7-1.6-1.6-1.6c-0.9,0-1.6,0.7-1.6,1.6v3.6
			C22.2,70.5,23,71.2,23.9,71.2L23.9,71.2z M23.9,71.2"/>
		<path class="st0" d="M32.6,71.2c0.9,0,1.6-0.7,1.6-1.6V66c0-0.9-0.7-1.6-1.6-1.6c-0.9,0-1.6,0.7-1.6,1.6v3.6
			C31,70.5,31.7,71.2,32.6,71.2L32.6,71.2z M32.6,71.2"/>
		<path class="st0" d="M41.4,71.2c0.9,0,1.6-0.7,1.6-1.6V66c0-0.9-0.7-1.6-1.6-1.6c-0.9,0-1.6,0.7-1.6,1.6v3.6
			C39.8,70.5,40.5,71.2,41.4,71.2L41.4,71.2z M41.4,71.2"/>
	</g>
</g>
</svg>
