<?xml version="1.0" encoding="utf-8"?>
<!-- Generator: Adobe Illustrator 19.0.1, SVG Export Plug-In . SVG Version: 6.00 Build 0)  -->
<svg version="1.1" id="Layer_1" xmlns="http://www.w3.org/2000/svg" xmlns:xlink="http://www.w3.org/1999/xlink" x="0px" y="0px"
	 viewBox="0 0 80 80" style="enable-background:new 0 0 80 80;" xml:space="preserve">
<style type="text/css">
	.st0{fill:#15ADE4;}
</style>
<g>
	<rect x="59" y="24.1" class="st0" width="4" height="4"/>
	<rect x="59" y="32" class="st0" width="4" height="4"/>
	<rect x="59" y="40" class="st0" width="4" height="4"/>
	<rect x="59" y="48" class="st0" width="4" height="4"/>
	<rect x="59" y="63.9" class="st0" width="4" height="4"/>
	<rect x="59" y="55.9" class="st0" width="4" height="4"/>
	<rect x="27.2" y="24.1" class="st0" width="4" height="4"/>
	<rect x="27.2" y="32" class="st0" width="4" height="4"/>
	<rect x="27.2" y="40" class="st0" width="4" height="4"/>
	<rect x="27.2" y="48" class="st0" width="4" height="4"/>
	<rect x="27.2" y="63.9" class="st0" width="4" height="4"/>
	<rect x="27.2" y="55.9" class="st0" width="4" height="4"/>
	<rect x="19.2" y="24.1" class="st0" width="4" height="4"/>
	<rect x="19.2" y="32" class="st0" width="4" height="4"/>
	<rect x="19.2" y="40" class="st0" width="4" height="4"/>
	<rect x="19.2" y="48" class="st0" width="4" height="4"/>
	<rect x="19.2" y="63.9" class="st0" width="4" height="4"/>
	<rect x="19.2" y="55.9" class="st0" width="4" height="4"/>
	<rect x="35.2" y="24.1" class="st0" width="4" height="4"/>
	<rect x="35.2" y="32" class="st0" width="4" height="4"/>
	<rect x="35.2" y="40" class="st0" width="4" height="4"/>
	<rect x="35.2" y="48" class="st0" width="4" height="4"/>
	<rect x="35.2" y="63.9" class="st0" width="4" height="4"/>
	<rect x="35.2" y="55.9" class="st0" width="4" height="4"/>
	<path class="st0" d="M11.3,18.1c0-1.3,1.1-2.8,2.4-3.2l33.4-10v70.9H11.3V18.1z M68.5,18.8c1.3,0.4,2.4,2,2.4,3.3v53.7H51.1V12.9
		L68.5,18.8z M76.9,75.8h-2V22.1c0-3-2.3-6.2-5.1-7.1L51.1,8.7V2.2c0-0.6-0.3-1.2-0.8-1.6c-0.5-0.4-1.2-0.5-1.8-0.3l-36,10.8
		c-2.9,0.9-5.2,4-5.2,7v57.7h-2c-1.1,0-2,0.9-2,2s0.9,2,2,2h71.6c1.1,0,2-0.9,2-2S78,75.8,76.9,75.8z"/>
</g>
</svg>
