<?xml version="1.0" encoding="utf-8"?>
<!-- Generator: Adobe Illustrator 19.0.1, SVG Export Plug-In . SVG Version: 6.00 Build 0)  -->
<svg version="1.1" id="Layer_1" xmlns="http://www.w3.org/2000/svg" xmlns:xlink="http://www.w3.org/1999/xlink" x="0px" y="0px"
	 viewBox="0 0 80 80" style="enable-background:new 0 0 80 80;" xml:space="preserve">
<style type="text/css">
	.st0{fill:#15ADE4;}
</style>
<g>
	<path class="st0" d="M29.5,49.4c0,0.7,0.6,1.3,1.3,1.3h5.3c0.7,0,1.3-0.6,1.3-1.3v-8c0-0.7-0.6-1.3-1.3-1.3h-5.3
		c-0.7,0-1.3,0.6-1.3,1.3V49.4z M32.2,42.8h2.7v5.3h-2.7V42.8z M32.2,42.8"/>
	<path class="st0" d="M30.8,34.8h5.3c0.7,0,1.3-0.6,1.3-1.3v-8c0-0.7-0.6-1.3-1.3-1.3h-5.3c-0.7,0-1.3,0.6-1.3,1.3v8
		C29.5,34.2,30.1,34.8,30.8,34.8L30.8,34.8z M32.2,26.8h2.7v5.3h-2.7V26.8z M32.2,26.8"/>
	<path class="st0" d="M20.9,25.3l19.2-11.5l19.2,11.5c0.2,0.1,0.5,0.2,0.7,0.2c0.5,0,0.9-0.2,1.1-0.6c0.4-0.6,0.2-1.4-0.5-1.8
		L41.5,11.5V2.9h6.6v2.7h-4c-0.7,0-1.3,0.6-1.3,1.3c0,0.7,0.6,1.3,1.3,1.3h5.3c0.7,0,1.3-0.6,1.3-1.3V1.6c0-0.7-0.6-1.3-1.3-1.3
		h-9.3c-0.7,0-1.3,0.6-1.3,1.3v9.9L19.5,23c-0.6,0.4-0.8,1.2-0.5,1.8C19.4,25.5,20.2,25.7,20.9,25.3L20.9,25.3z M20.9,25.3"/>
	<path class="st0" d="M14.9,50.8c0.7,0,1.3-0.6,1.3-1.3v-8c0-0.7-0.6-1.3-1.3-1.3H9.6c-0.7,0-1.3,0.6-1.3,1.3v2.7
		c0,0.7,0.6,1.3,1.3,1.3c0.7,0,1.3-0.6,1.3-1.3v-1.3h2.7v6.6C13.5,50.2,14.1,50.8,14.9,50.8L14.9,50.8z M14.9,50.8"/>
	<path class="st0" d="M24.2,68V29.5c0-0.7-0.6-1.3-1.3-1.3c-0.7,0-1.3,0.6-1.3,1.3V68c0,0.7,0.6,1.3,1.3,1.3
		C23.6,69.4,24.2,68.8,24.2,68L24.2,68z M24.2,68"/>
	<path class="st0" d="M17.5,74.7h45.2c0.7,0,1.3-0.6,1.3-1.3c0-0.7-0.6-1.3-1.3-1.3h-12V58.7h1.3c0.7,0,1.3-0.6,1.3-1.3
		c0-0.7-0.6-1.3-1.3-1.3H28.2c-0.7,0-1.3,0.6-1.3,1.3c0,0.7,0.6,1.3,1.3,1.3h1.3V72h-12c-0.7,0-1.3,0.6-1.3,1.3
		C16.2,74.1,16.8,74.7,17.5,74.7L17.5,74.7z M41.5,66.7c0.7,0,1.3-0.6,1.3-1.3c0-0.7-0.6-1.3-1.3-1.3v-5.3h6.6V72h-6.6V66.7z
		 M32.2,58.7h6.6v5.3c-0.7,0-1.3,0.6-1.3,1.3c0,0.7,0.6,1.3,1.3,1.3V72h-6.6V58.7z M32.2,58.7"/>
	<path class="st0" d="M70.7,57.4h-5.3c-0.7,0-1.3,0.6-1.3,1.3v8c0,0.7,0.6,1.3,1.3,1.3h5.3c0.7,0,1.3-0.6,1.3-1.3v-8
		C72,58,71.4,57.4,70.7,57.4L70.7,57.4z M69.4,65.4h-2.7v-5.3h2.7V65.4z M69.4,65.4"/>
	<path class="st0" d="M70.7,41.5h-5.3c-0.7,0-1.3,0.6-1.3,1.3v8c0,0.7,0.6,1.3,1.3,1.3h5.3c0.7,0,1.3-0.6,1.3-1.3v-8
		C72,42.1,71.4,41.5,70.7,41.5L70.7,41.5z M69.4,49.4h-2.7v-5.3h2.7V49.4z M69.4,49.4"/>
	<path class="st0" d="M68,77.3H12.2c-0.7,0-1.3,0.6-1.3,1.3c0,0.7,0.6,1.3,1.3,1.3H68c0.7,0,1.3-0.6,1.3-1.3
		C69.4,77.9,68.8,77.3,68,77.3L68,77.3z M68,77.3"/>
	<path class="st0" d="M78.7,29.5c-0.7,0-1.3,0.6-1.3,1.3v1.3H62.7c-0.7,0-1.3,0.6-1.3,1.3c0,0.7,0.6,1.3,1.3,1.3h14.6v43.9
		c0,0.7,0.6,1.3,1.3,1.3c0.7,0,1.3-0.6,1.3-1.3V30.8C80,30.1,79.4,29.5,78.7,29.5L78.7,29.5z M78.7,29.5"/>
	<path class="st0" d="M42.8,49.4c0,0.7,0.6,1.3,1.3,1.3h5.3c0.7,0,1.3-0.6,1.3-1.3v-8c0-0.7-0.6-1.3-1.3-1.3h-5.3
		c-0.7,0-1.3,0.6-1.3,1.3V49.4z M45.4,42.8h2.7v5.3h-2.7V42.8z M45.4,42.8"/>
	<path class="st0" d="M13.5,65.4c0-0.2-0.1-17.3-6.6-17.3c-6.6,0-6.6,17.1-6.6,17.3c0,3.2,2.3,5.9,5.3,6.5v6.8
		c0,0.7,0.6,1.3,1.3,1.3c0.7,0,1.3-0.6,1.3-1.3v-6.8C11.3,71.3,13.5,68.6,13.5,65.4L13.5,65.4z M6.9,69.4c-2.2,0-4-1.8-4-4
		c0-6.6,1.8-14.6,4-14.6c2.2,0,4,8,4,14.6C10.9,67.6,9.1,69.4,6.9,69.4L6.9,69.4z M6.9,69.4"/>
	<path class="st0" d="M58.7,68V28.2c0-0.7-0.6-1.3-1.3-1.3c-0.7,0-1.3,0.6-1.3,1.3V68c0,0.7,0.6,1.3,1.3,1.3
		C58.1,69.4,58.7,68.8,58.7,68L58.7,68z M58.7,68"/>
	<path class="st0" d="M44.1,34.8h5.3c0.7,0,1.3-0.6,1.3-1.3v-8c0-0.7-0.6-1.3-1.3-1.3h-5.3c-0.7,0-1.3,0.6-1.3,1.3v8
		C42.8,34.2,43.4,34.8,44.1,34.8L44.1,34.8z M45.4,26.8h2.7v5.3h-2.7V26.8z M45.4,26.8"/>
	<path class="st0" d="M1.6,46.8c0.7,0,1.3-0.6,1.3-1.3V34.8h14.6c0.7,0,1.3-0.6,1.3-1.3c0-0.7-0.6-1.3-1.3-1.3H2.9v-1.3
		c0-0.7-0.6-1.3-1.3-1.3c-0.7,0-1.3,0.6-1.3,1.3v14.6C0.3,46.2,0.9,46.8,1.6,46.8L1.6,46.8z M1.6,46.8"/>
</g>
</svg>
