<?xml version="1.0" encoding="utf-8"?>
<!-- Generator: Adobe Illustrator 19.0.1, SVG Export Plug-In . SVG Version: 6.00 Build 0)  -->
<svg version="1.1" id="Layer_1" xmlns="http://www.w3.org/2000/svg" xmlns:xlink="http://www.w3.org/1999/xlink" x="0px" y="0px"
	 viewBox="0 0 80 80" style="enable-background:new 0 0 80 80;" xml:space="preserve">
<style type="text/css">
	.st0{fill:#15ADE4;}
</style>
<g>
	<path class="st0" d="M6.6,4.5c-1.2,0-2.1,0.9-2.1,2.1v67.1c0,1.2,0.9,2.1,2.1,2.1h67.1c1.2,0,2.1-0.9,2.1-2.1V6.6
		c0-1.2-0.9-2.1-2.1-2.1H6.6z M73.7,80H6.6c-3.5,0-6.3-2.8-6.3-6.3V6.6c0-3.5,2.8-6.3,6.3-6.3h67.1c3.5,0,6.3,2.8,6.3,6.3v67.1
		C80,77.2,77.2,80,73.7,80z"/>
	<path class="st0" d="M21.3,63.2h4.2V29.7h-4.2V63.2z M27.6,67.4h-8.4c-1.2,0-2.1-0.9-2.1-2.1V27.6c0-1.2,0.9-2.1,2.1-2.1h8.4
		c1.2,0,2.1,0.9,2.1,2.1v37.7C29.7,66.5,28.8,67.4,27.6,67.4z"/>
	<path class="st0" d="M38.1,63.2h4.2V17.1h-4.2V63.2z M44.4,67.4H36c-1.2,0-2.1-0.9-2.1-2.1V15c0-1.2,0.9-2.1,2.1-2.1h8.4
		c1.2,0,2.1,0.9,2.1,2.1v50.3C46.5,66.5,45.5,67.4,44.4,67.4z"/>
	<path class="st0" d="M54.8,63.2H59V46.5h-4.2V63.2z M61.1,67.4h-8.4c-1.2,0-2.1-0.9-2.1-2.1v-21c0-1.2,0.9-2.1,2.1-2.1h8.4
		c1.2,0,2.1,0.9,2.1,2.1v21C63.2,66.5,62.3,67.4,61.1,67.4z"/>
</g>
</svg>
