<?xml version="1.0" encoding="utf-8"?>
<!-- Generator: Adobe Illustrator 19.0.1, SVG Export Plug-In . SVG Version: 6.00 Build 0)  -->
<svg version="1.1" id="Layer_1" xmlns="http://www.w3.org/2000/svg" xmlns:xlink="http://www.w3.org/1999/xlink" x="0px" y="0px"
	 viewBox="0 0 400 400" style="enable-background:new 0 0 400 400;" xml:space="preserve">
<style type="text/css">
	.st0{fill:#27AAE1;}
	.st1{fill:#FFFFFF;}
</style>
<g>
	<g>
		<path class="st0" d="M200,35.8c0,0-125.6,133.5-125.6,202.8S130.7,364.2,200,364.2c69.3,0,125.6-56.2,125.6-125.6
			S200,35.8,200,35.8z M200,320.7c-45.3,0-82.1-36.7-82.1-82.1c0-45.3,36.7-82.1,82.1-82.1c45.3,0,82.1,36.7,82.1,82.1
			C282.1,283.9,245.3,320.7,200,320.7z"/>
	</g>
	<g>
		<path class="st1" d="M323.7,298.6H76.3c-33,0-60-27-60-60v0c0-33,27-60,60-60h247.4c33,0,60,27,60,60v0
			C383.7,271.6,356.7,298.6,323.7,298.6z"/>
		<path class="st0" d="M323.7,299H76.3c-33.3,0-60.4-27.1-60.4-60.4c0-33.3,27.1-60.4,60.4-60.4h247.4c33.3,0,60.4,27.1,60.4,60.4
			C384.1,271.9,357,299,323.7,299z M76.3,179.1c-32.8,0-59.6,26.7-59.6,59.6s26.7,59.6,59.6,59.6h247.4c32.8,0,59.6-26.7,59.6-59.6
			s-26.7-59.6-59.6-59.6H76.3z"/>
	</g>
	<g>
		<path d="M82,248.4l-0.8,9.6c-0.5,5.9-2.2,10.3-5.3,13.5c-3.1,3.1-7.3,4.7-12.8,4.7s-9.5-1.6-12.1-4.7c-2.6-3.1-3.6-7.6-3.2-13.5
			l3-37.7c0.5-5.9,2.2-10.4,5.3-13.5c3.1-3.1,7.3-4.7,12.8-4.7s9.5,1.6,12.1,4.7c2.6,3.1,3.6,7.6,3.2,13.5l-0.6,7H73.1l0.6-7.8
			c0.2-2.6-0.2-4.5-1.1-5.5c-1-1.1-2.3-1.6-4.1-1.6c-1.8,0-3.2,0.5-4.4,1.6c-1.1,1.1-1.8,2.9-2,5.6L59,258.7
			c-0.2,2.6,0.2,4.5,1.1,5.5c1,1,2.3,1.6,4.1,1.6c1.8,0,3.2-0.5,4.3-1.6c1.1-1,1.8-2.9,2-5.5l0.8-10.4H82z"/>
		<path d="M122.7,275.3h-11.3l-0.9-13.2H96.7l-3,13.2H83.5l17.1-72.5H117L122.7,275.3z M99,252.3h10.8l-2.5-36.7L99,252.3z"/>
		<path d="M150.1,275.3c-0.1-0.5-0.2-0.9-0.3-1.3c-0.1-0.4-0.2-0.9-0.2-1.6s-0.1-1.4,0-2.4c0-1,0.1-2.2,0.2-3.6l0.9-11.4
			c0.3-3.4-0.1-5.8-1.2-7.1c-1-1.4-2.9-2.1-5.4-2.1h-3.9l-2.3,29.5h-11.2l5.7-72.5h16.9c5.8,0,9.9,1.4,12.3,4.1
			c2.4,2.8,3.4,6.9,2.9,12.5l-0.5,5.7c-0.6,7.5-3.4,12.4-8.5,14.7c2.8,1.2,4.6,3.1,5.4,5.7c0.8,2.7,1.1,5.9,0.8,9.7l-0.9,11.2
			c-0.1,1.8-0.2,3.4-0.2,4.7c0,1.3,0.3,2.7,0.7,4.1H150.1z M142.9,213.1l-1.8,22.3h4.4c2.1,0,3.8-0.6,5.1-1.7c1.3-1.1,2-3.1,2.3-6
			l0.6-7.1c0.2-2.6-0.1-4.5-0.9-5.7c-0.8-1.2-2.2-1.8-4.2-1.8H142.9z"/>
		<path d="M211.7,236.7l-7.1,38.6h-15.4l-2.2-72.5h10.9l1.5,57.2l9.9-57.2h10.8l1,57.6l10.4-57.6h9.8l-13.7,72.5h-14.9L211.7,236.7z
			"/>
		<path d="M273.1,275.3h-11.3l-0.9-13.2h-13.7l-3,13.2h-10.3l17.1-72.5h16.4L273.1,275.3z M249.3,252.3h10.8l-2.5-36.7L249.3,252.3z
			"/>
		<path d="M279.2,220.2c0.5-5.9,2.2-10.4,5.2-13.5c3-3.1,7.2-4.7,12.7-4.7c5.5,0,9.5,1.6,12,4.7c2.5,3.1,3.5,7.6,3,13.5l-0.2,2.8
			h-10.6l0.3-3.5c0.2-2.6-0.1-4.5-1-5.5c-0.9-1.1-2.2-1.6-4-1.6c-1.8,0-3.2,0.5-4.2,1.6c-1.1,1.1-1.7,2.9-1.9,5.5
			c-0.2,2.5,0.2,4.7,1.1,6.6c0.9,1.9,2.2,3.7,3.6,5.4c1.5,1.7,3.1,3.4,4.8,5.1c1.7,1.7,3.3,3.5,4.8,5.5c1.5,2,2.6,4.3,3.5,6.8
			c0.9,2.6,1.2,5.6,0.9,9c-0.5,5.9-2.2,10.4-5.3,13.5c-3.1,3.1-7.3,4.7-12.8,4.7c-5.5,0-9.5-1.6-12.1-4.7c-2.6-3.1-3.6-7.6-3.2-13.5
			l0.4-5h10.6l-0.5,5.7c-0.2,2.6,0.2,4.5,1.1,5.5c1,1,2.3,1.6,4.1,1.6c1.8,0,3.2-0.5,4.3-1.6c1.1-1,1.8-2.9,2-5.5
			c0.2-2.5-0.2-4.7-1.1-6.6c-0.9-1.9-2.1-3.7-3.6-5.4c-1.5-1.7-3.1-3.4-4.8-5.1c-1.7-1.7-3.3-3.5-4.8-5.6s-2.6-4.3-3.5-6.8
			C279.2,226.7,278.9,223.7,279.2,220.2z"/>
		<path d="M323.6,275.3h-11.2l5.7-72.5h11.2l-2.5,31.1h12.7l2.5-31.1h11.4l-5.7,72.5h-11.4l2.5-31.1h-12.7L323.6,275.3z"/>
	</g>
	<g>
		<path class="st1" d="M116.4,163.2l8.2-8.2l1.2,1.2l-7,7l4.5,4.6l6.2-6.2l1.2,1.2l-6.2,6.2l6.2,6.3l-1.2,1.2L116.4,163.2z"/>
		<path class="st1" d="M137.5,165l-9.4-13l1.4-1l9,12.4l2.5,0.4l4.8-3.5l0.4-2.5l-9-12.4l1.4-1l9.4,13l-0.6,3.8l-6.1,4.4L137.5,165z
			"/>
		<path class="st1" d="M144.1,141.2l1.6-0.8l7.8,15.2l8.8-4.5l0.8,1.6l-10.3,5.3L144.1,141.2z"/>
		<path class="st1" d="M158.6,134.3l1.6-0.6l5.5,16.1l9.3-3.2l0.6,1.6l-11,3.8L158.6,134.3z"/>
		<path class="st1" d="M186.2,129.2l-1.5,1.9l0.2,1.9l0.4,0.6l10,3.7l1,1.5l0.4,3.8l-2.5,3l-6.9,0.7l-2.8-0.6l0.4-1.7l2.4,0.6l6-0.6
			l1.5-1.9l-0.2-2.5l-0.4-0.7l-10-3.7l-0.9-1.4l-0.3-3.1l2.5-3l7-0.7l2.7,0.6l-0.4,1.7l-2.5-0.5L186.2,129.2z"/>
		<path class="st1" d="M200.6,126.5l11.6,0.6l-0.1,1.7l-9.9-0.5l-0.3,6.2l8.7,0.4l-0.1,1.7l-8.7-0.4l-0.4,7.3l9.9,0.5l-0.1,1.7
			l-11.6-0.6L200.6,126.5z"/>
		<path class="st1" d="M215.2,146.5l-1.7-0.4l3.8-18.4l10,2.1l2.2,3.2l-1.2,5.8L225,141l-3.7-0.8l5,7.7l-1.5,1l-6-9.2l-2.2-0.5
			L215.2,146.5z M218.6,129.8l-1.6,7.8l7.6,1.6l2.1-1.3l0.9-4.4l-1.4-2.1L218.6,129.8z"/>
		<path class="st1" d="M232.8,151.2l0.9-19.4l1.8,0.1l-0.8,17.8l11.3-13.8l1.4,1.1L235,152L232.8,151.2z"/>
		<path class="st1" d="M241.6,154.9l0.8-1.5l2.7,1.5l7.3-13.4l-2.7-1.5l0.8-1.5l7,3.8l-0.8,1.5l-2.7-1.5l-7.3,13.4l2.7,1.5l-0.8,1.5
			L241.6,154.9z"/>
		<path class="st1" d="M262.1,163.4l0.3,1.7l-3.6,0.6l-6.3-4.6l-0.6-3.9l7.7-10.7l3.9-0.6l6.1,4.4l0.6,3.9l-1.8,2.4l-1.4-1l1.3-1.8
			l-0.4-2.4l-4.9-3.5l-2.4,0.4l-6.9,9.6l0.4,2.4l5.1,3.7L262.1,163.4z"/>
		<path class="st1" d="M275.9,155.5l8.3,8.1l-1.2,1.2l-7-6.9l-4.4,4.4l6.2,6.1l-1.2,1.2l-6.2-6.1l-5.1,5.2l7,6.9l-1.2,1.2l-8.3-8.1
			L275.9,155.5z"/>
	</g>
	<g>
		<path class="st1" d="M137,309.9l1.2,1.2l-13.1,13.4l-1.2-1.2l6.2-6.3l-6.8-6.7l-6.2,6.4l-1.2-1.2l13.1-13.4l1.2,1.2l-5.7,5.8
			l6.8,6.7L137,309.9z"/>
		<path class="st1" d="M129.2,327.8l1-1.4l2.5,1.8l9.1-12.3l-2.5-1.8l1-1.4l6.4,4.7l-1,1.4l-2.5-1.8l-9.1,12.3l2.5,1.8l-1,1.4
			L129.2,327.8z"/>
		<path class="st1" d="M156.9,330l-1.5-0.8l1.1-2l-0.6-2.3l-5.4-3l-2.3,0.7l-5.7,10.4l0.6,2.3l5.4,3l2.3-0.7l2.2-3.9l-3.9-2.2
			l0.8-1.5l5.5,3l-3.4,6.1l-3.7,1.1l-6.6-3.7l-1.1-3.7L147,321l3.7-1.1l6.6,3.7l1.1,3.7L156.9,330z"/>
		<path class="st1" d="M173.1,329.9l1.6,0.6l-6.2,17.7l-1.6-0.6l2.9-8.4l-9-3.1l-2.9,8.4l-1.6-0.6l6.2-17.7l1.6,0.6l-2.7,7.7l9,3.1
			L173.1,329.9z"/>
		<path class="st1" d="M187.4,351.8l-2.8-3l1-13.2l3.2-2.5l7.7,0.6l2.8,3l-1,13.2l-3.2,2.5l-3-0.2l-0.3,3.7l-1.7-0.1l0.3-3.7
			L187.4,351.8z M194.7,350.6l2.1-1.6l0.9-11.8l-1.8-1.9l-6.4-0.5l-2.1,1.6l-0.9,11.8l1.8,1.9l2.4,0.2l0.1-1.6l1.7,0.1l-0.1,1.6
			L194.7,350.6z"/>
		<path class="st1" d="M204,349.8l-1.5-16l1.7-0.2l1.4,15.2l1.9,1.6l6-0.6l1.6-1.9l-1.4-15.2l1.7-0.2l1.5,16l-2.5,3l-7.4,0.7
			L204,349.8z"/>
		<path class="st1" d="M223.7,350.4l-1.8-0.1l1.1-19.4l2.4-0.6l10.5,16.4l-1.5,0.9l-3.4-5.3l-7,1.8L223.7,350.4z M230,340.7
			l-5.3-8.3l-0.5,9.8L230,340.7z"/>
		<path class="st1" d="M233.2,327.8l1.6-0.7l6.7,15.6l9.1-3.9l0.7,1.6l-10.7,4.6L233.2,327.8z"/>
		<path class="st1" d="M253.9,339l-0.9-1.5l2.7-1.6l-7.7-13.2l-2.7,1.6l-0.9-1.5l6.9-4l0.9,1.5l-2.7,1.6l7.7,13.2l2.7-1.6l0.9,1.5
			L253.9,339z"/>
		<path class="st1" d="M269.3,328.9l-1.4,1.1l-10.3-13.6l-4.7,3.6l-1.1-1.4l10.8-8.2l1.1,1.4l-4.7,3.6L269.3,328.9z"/>
		<path class="st1" d="M280.5,319.1l-5-5l-12.3-3.2l0.4-1.7l11,2.9l-3-11l1.7-0.5l3.4,12.3l5,4.9L280.5,319.1z"/>
	</g>
</g>
</svg>
